<svg xmlns="http://www.w3.org/2000/svg" style="display: none;">
  <!-- Twitter -->
  <symbol id="twitter" viewBox="0 0 24 24">
    <path d="M23.954 4.569c-.885.392-1.83.656-2.825.775 
             1.014-.611 1.794-1.574 2.163-2.724-.951.564-2.005.974-3.127 
             1.195-.897-.959-2.178-1.559-3.594-1.559-2.723 
             0-4.928 2.205-4.928 4.928 0 .39.045.765.127 
             1.124-4.094-.205-7.725-2.165-10.163-5.144-.424.729-.666 
             1.577-.666 2.475 0 1.708.87 3.216 2.188 
             4.099-.807-.026-1.566-.248-2.229-.616v.062c0 
             2.385 1.693 4.374 3.946 4.827-.413.111-.849.171-1.296.171-.317 
             0-.626-.031-.928-.088.627 1.956 2.444 3.377 
             4.6 3.419-1.68 1.316-3.809 2.101-6.115 
             2.101-.398 0-.79-.023-1.175-.069 2.179 
             1.397 4.768 2.212 7.557 2.212 9.054 
             0 14-7.496 14-13.986 0-.21 0-.423-.015-.634.962-.689 
             1.8-1.56 2.46-2.548l-.047-.02z"/>
  </symbol>

  <!-- YouTube -->
  <symbol id="youtube" viewBox="0 0 24 24">
    <path d="M23.498 6.186a2.974 2.974 0 0 0-2.093-2.103C19.397 
             3.5 12 3.5 12 3.5s-7.397 0-9.405.583A2.974 2.974 
             0 0 0 .502 6.186C0 8.194 0 12 0 12s0 3.806.502 
             5.814a2.974 2.974 0 0 0 2.093 2.103C4.603 
             20.5 12 20.5 12 20.5s7.397 0 9.405-.583a2.974 
             2.974 0 0 0 2.093-2.103C24 15.806 24 12 24 
             12s0-3.806-.502-5.814zM9.75 15.568V8.432L15.818 
             12 9.75 15.568z"/>
  </symbol>

  <!-- GitHub -->
  <symbol id="github" viewBox="0 0 24 24">
    <path d="M12 .297c-6.63 0-12 5.373-12 
             12 0 5.303 3.438 9.8 8.205 
             11.385.6.113.82-.258.82-.577 
             0-.285-.01-1.04-.015-2.04-3.338.724-4.042-1.61-4.042-1.61C4.422 
             17.07 3.633 16.7 3.633 16.7c-1.087-.744.084-.729.084-.729 
             1.205.084 1.838 1.236 1.838 1.236 1.07 1.835 
             2.809 1.305 3.495.998.108-.775.418-1.305.762-1.605-2.665-.3-5.466-1.332-5.466-5.931 
             0-1.31.468-2.381 1.235-3.221-.135-.303-.54-1.523.105-3.176 
             0 0 1.005-.322 3.3 1.23a11.48 11.48 0 0 1 
             3-.405c1.02.005 2.045.138 3 
             .405 2.28-1.552 3.285-1.23 3.285-1.23 
             .645 1.653.24 2.873.12 3.176.765.84 
             1.23 1.911 1.23 3.221 0 4.61-2.805 
             5.625-5.475 5.921.429.369.81 
             1.096.81 2.22 0 1.606-.015 
             2.896-.015 3.286 0 .315.21.69.825.57C20.565 
             22.092 24 17.592 24 12.297c0-6.627-5.373-12-12-12"/>
  </symbol>

  <!-- LinkedIn -->
  <symbol id="linkedin" viewBox="0 0 24 24">
    <path d="M4.98 3.5C4.98 5.43 3.43 7 1.5 
             7S-1.98 5.43-1.98 3.5C-1.98 1.57 
             -.43 0 1.5 0s3.48 1.57 3.48 
             3.5zM.02 8h3V24h-3V8zM8 8h2.9v2.2h.04c.4-.75 
             1.38-1.54 2.84-1.54 3.04 0 3.6 2 3.6 
             4.59V24h-3v-8.7c0-2.08-.04-4.77-2.9-4.77-2.9 
             0-3.34 2.26-3.34 4.6V24H8V8z"/>
  </symbol>

  <!-- Email -->
  <symbol id="email" viewBox="0 0 24 24">
    <path d="M12 13.065 0 6V4l12 7.065L24 4v2l-12 7.065zM0 
             8v12h24V8l-12 7L0 8z"/>
  </symbol>
</svg>
